<mxfile host="app.diagrams.net" modified="2023-09-28T17:53:05.008Z" agent="Mozilla/5.0 (X11; Linux x86_64; rv:109.0) Gecko/20100101 Firefox/114.0" version="22.0.0" etag="37j_4Ne_vmAQcPH_uaIa" type="github">
  <diagram name="PÃ¡gina-1" id="DREMgQ5IroIV5vuF7_jU">
    <mxGraphModel>
      <root>
        <mxCell id="0" />
        <mxCell id="1" parent="0" />
      </root>
    </mxGraphModel>
  </diagram>
</mxfile>
